<svg xmlns="http://www.w3.org/2000/svg" viewBox="0 0 1024 1024" width="1024" height="1024">
  <defs>
    <linearGradient id="bg" x1="0" y1="0" x2="1024" y2="1024" gradientUnits="userSpaceOnUse">
      <stop offset="0" stop-color="#FF5A4C"/>
      <stop offset="1" stop-color="#C32014"/>
    </linearGradient>
  </defs>
  <!-- full-bleed red gradient background -->
  <rect width="1024" height="1024" fill="url(#bg)"/>
  <!-- white clock: 12 tick marks + hour/minute hands posed at 10:10 (no outer ring) -->
  <g fill="none" stroke="#FFFFFF" stroke-linecap="round">
    <!-- cardinal ticks: 12, 3, 6, 9 -->
    <g stroke-width="34">
      <line x1="512" y1="190" x2="512" y2="262" transform="rotate(0 512 512)"/>
      <line x1="512" y1="190" x2="512" y2="262" transform="rotate(90 512 512)"/>
      <line x1="512" y1="190" x2="512" y2="262" transform="rotate(180 512 512)"/>
      <line x1="512" y1="190" x2="512" y2="262" transform="rotate(270 512 512)"/>
    </g>
    <!-- minor ticks: the other eight hours -->
    <g stroke-width="22">
      <line x1="512" y1="190" x2="512" y2="232" transform="rotate(30 512 512)"/>
      <line x1="512" y1="190" x2="512" y2="232" transform="rotate(60 512 512)"/>
      <line x1="512" y1="190" x2="512" y2="232" transform="rotate(120 512 512)"/>
      <line x1="512" y1="190" x2="512" y2="232" transform="rotate(150 512 512)"/>
      <line x1="512" y1="190" x2="512" y2="232" transform="rotate(210 512 512)"/>
      <line x1="512" y1="190" x2="512" y2="232" transform="rotate(240 512 512)"/>
      <line x1="512" y1="190" x2="512" y2="232" transform="rotate(300 512 512)"/>
      <line x1="512" y1="190" x2="512" y2="232" transform="rotate(330 512 512)"/>
    </g>
    <!-- hour hand (shorter, thicker) toward ~10 o'clock -->
    <line x1="512" y1="512" x2="512" y2="357" stroke-width="40" transform="rotate(305 512 512)"/>
    <!-- minute hand (longer, thinner) toward 2 o'clock -->
    <line x1="512" y1="512" x2="512" y2="282" stroke-width="30" transform="rotate(60 512 512)"/>
  </g>
  <!-- center hub -->
  <circle cx="512" cy="512" r="32" fill="#FFFFFF"/>
</svg>
